/* XPM */
static char * FG_Cellar__1__xpm[] = {
"32 32 97 2",
"  	c None",
". 	c #352C29",
"+ 	c #5B3833",
"@ 	c #5A3833",
"# 	c #322B28",
"$ 	c #4C332F",
"% 	c #633B36",
"& 	c #70403B",
"* 	c #73423C",
"= 	c #71413B",
"- 	c #6F403A",
"; 	c #48312E",
"> 	c #292926",
", 	c #272826",
"' 	c #362C29",
") 	c #603A35",
"! 	c #2F2A27",
"~ 	c #76433D",
"{ 	c #72413B",
"] 	c #48322E",
"^ 	c #282926",
"/ 	c #312B28",
"( 	c #3A2D2A",
"_ 	c #342B28",
": 	c #2B2927",
"< 	c #5F3A35",
"[ 	c #74423C",
"} 	c #1E1208",
"| 	c #2C2A27",
"1 	c #302A28",
"2 	c #332B28",
"3 	c #1E2724",
"4 	c #593733",
"5 	c #6B3E39",
"6 	c #6C4C31",
"7 	c #412F2C",
"8 	c #382D29",
"9 	c #593833",
"0 	c #46312D",
"a 	c #2D2A27",
"b 	c #302B28",
"c 	c #523531",
"d 	c #BF8F57",
"e 	c #513530",
"f 	c #533531",
"g 	c #3D2E2B",
"h 	c #2A2926",
"i 	c #232825",
"j 	c #2E2A27",
"k 	c #5D3934",
"l 	c #DBA463",
"m 	c #75433C",
"n 	c #4E332F",
"o 	c #3F2F2B",
"p 	c #6B3F39",
"q 	c #563632",
"r 	c #513430",
"s 	c #543631",
"t 	c #6D3F39",
"u 	c #75433D",
"v 	c #3B2D2A",
"w 	c #4D332F",
"x 	c #72423B",
"y 	c #342C28",
"z 	c #643C36",
"A 	c #663D37",
"B 	c #6A3E38",
"C 	c #693E38",
"D 	c #673D37",
"E 	c #2E1D0F",
"F 	c #653C37",
"G 	c #683D38",
"H 	c #3C2E2A",
"I 	c #4E342F",
"J 	c #3D2715",
"K 	c #4F3430",
"L 	c #5E3934",
"M 	c #673D38",
"N 	c #222725",
"O 	c #583732",
"P 	c #56381E",
"Q 	c #70413B",
"R 	c #6E403A",
"S 	c #000303",
"T 	c #6A3E39",
"U 	c #77433D",
"V 	c #392D2A",
"W 	c #72423C",
"X 	c #553631",
"Y 	c #402F2B",
"Z 	c #342C29",
"` 	c #412F2B",
" .	c #573732",
"..	c #272926",
"+.	c #242825",
"@.	c #44302C",
"#.	c #623B36",
"    . + @ # $ % & * * = = = = = = = = = = = = * - ; > # # #     ",
"  , ' % ) ! ) ~ { = = = = = = = = = = = = = = * - ] ^ ! / #     ",
"# / # ( _ : < [ = } } } } } } } } } } } } } } * - ] , | 1 # #   ",
"# 2 / 3 ' 4 5 } } 6 6 6 6 6 6 6 6 6 6 6 6 6 6 } } 7 8 9 0 | : a ",
"/ b / 2 c * } 6 6 d d d d d d d d d d d d d d 6 6 } e [ f | g 8 ",
"h i j k - } 6 d d l d d d d d d d d d d d d l d d 6 } m n o p q ",
"f r s t u } 6 d l d l l l l l l l l l l l l d l d 6 } + v 8 k w ",
"* x { = = } 6 d l l d d d d d d d d d d d d l l d 6 } y b ' _ # ",
"u [ x = = } 6 d d l l l l l l l l l l l l l l d d 6 } z A B C w ",
"% D = = = } E 6 6 d d d d d d d d d d d d d d 6 6 E } [ 5 F G + ",
"H I { x = } E E E 6 6 6 6 6 6 6 6 6 6 6 6 6 6 E E J } = K , j L ",
") F = { = } E J J E E E E E E E E E E E E E J J J E } = M e N O ",
"[ * = = = } J J E J J J J P E E J J E J E P P J J E } = ~ p 0 k ",
"= = = = = } J J E J E E P P E E J E E E P J J J J E } = = Q R - ",
"= = = = = } J J J P J E J J E E J P J J J P P J J E } = = { * x ",
"= = = = = } J P P P J E E P J E E P J J E J J J J J } = = = = = ",
"= = = = } J J J J P J E E P J E E P J E J E J P J J J } = = = = ",
"= = = = } J J J J P P J E P P J E J J E J E P P P P J } = = = = ",
"= = = } J J P P P E J J J P J J E P J J E P J P J J J } = = = = ",
"= = = } J J J P P J E J P J J J J P P J E J J J P P J } = = = = ",
"= = } J J J J P J E E P J J E J J J J P E J E P P P J J } = = = ",
"= = } J P P E J J E E J P J E J J P P J J E J P P P P J J } = = ",
"[ } J J J P E J E E P J J E E J P J J P J E J J P E P P J J } = ",
"} J P P P J J E E J P J E E J J E J P P J E E J J E E J J J J } ",
"J J J J J J E E J P J E E E E J E J J P P E E E E E E J J J J J ",
"J E E E E E J J J J J E E E E J J E J J J J E E E E E E E E E J ",
"S S S S E J J J J S E E S S E J J S J J J E S E E E E E J S S S ",
"t C T - { { = = = = = = = = = = = = = = = = = = = = { [ U p 0 V ",
"= ~ ~ [ W = = = = = = = = = = = = = = = = = = = = W T @ k X a Y ",
"B * - - & = = = = = = = = = = = = = = = = = = = = [ % Z h | a @ ",
"- D ` Y  .= W = = = = = = = = = = = = = = = = x [ u = F 0 ..1 Y ",
"L k ; +.@.Q * = = = = = = = = = = = = = = = { p #.< B ~ f ^ # a "};
