/* XPM */
static char * FG_Cellar__2__xpm[] = {
"32 32 114 2",
"  	c None",
". 	c #322B28",
"+ 	c #2B2927",
"@ 	c #48322E",
"# 	c #76433D",
"$ 	c #72413B",
"% 	c #372C29",
"& 	c #503430",
"* 	c #6C3F39",
"= 	c #71413B",
"- 	c #70413B",
"; 	c #633B36",
"> 	c #3A2D2A",
", 	c #2F2A27",
"' 	c #2B2926",
") 	c #3B2D2A",
"! 	c #573732",
"~ 	c #5D3934",
"{ 	c #6B3E39",
"] 	c #74423C",
"^ 	c #122020",
"/ 	c #3E2E2B",
"( 	c #2E2A27",
"_ 	c #47312D",
": 	c #46312D",
"< 	c #332B28",
"[ 	c #4D332F",
"} 	c #292926",
"| 	c #5F3A35",
"1 	c #42302C",
"2 	c #75433D",
"3 	c #9CDB43",
"4 	c #D6F264",
"5 	c #1B392D",
"6 	c #2C2A27",
"7 	c #312B28",
"8 	c #73423C",
"9 	c #14A02E",
"0 	c #1A7A3E",
"a 	c #59C135",
"b 	c #613B35",
"c 	c #593733",
"d 	c #272926",
"e 	c #302B28",
"f 	c #543531",
"g 	c #2C2927",
"h 	c #382D29",
"i 	c #5C3934",
"j 	c #75433C",
"k 	c #4B332E",
"l 	c #3C2E2A",
"m 	c #6E403A",
"n 	c #693E38",
"o 	c #6F403A",
"p 	c #24523B",
"q 	c #3D2E2B",
"r 	c #653C37",
"s 	c #6D403A",
"t 	c #583732",
"u 	c #59332E",
"v 	c #342C29",
"w 	c #58322E",
"x 	c #5A332E",
"y 	c #643C36",
"z 	c #352C29",
"A 	c #372623",
"B 	c #58332E",
"C 	c #5C352F",
"D 	c #5C342F",
"E 	c #5B342F",
"F 	c #3E2926",
"G 	c #2F2421",
"H 	c #6B3F39",
"I 	c #45312D",
"J 	c #282220",
"K 	c #432A27",
"L 	c #392724",
"M 	c #4B2E2A",
"N 	c #5C3530",
"O 	c #51302B",
"P 	c #262826",
"Q 	c #553631",
"R 	c #362C29",
"S 	c #472C28",
"T 	c #452B27",
"U 	c #252220",
"V 	c #3C2825",
"W 	c #482D29",
"X 	c #442B27",
"Y 	c #5A342E",
"Z 	c #282926",
"` 	c #2A2926",
" .	c #1C1F1E",
"..	c #4F2F2A",
"+.	c #422A27",
"@.	c #54312D",
"#.	c #1B1F1E",
"$.	c #2F2422",
"%.	c #4C2E2A",
"&.	c #533531",
"*.	c #262220",
"=.	c #1A1F1D",
"-.	c #5D3530",
";.	c #5A342F",
">.	c #55312D",
",.	c #2D2321",
"'.	c #6D3F3A",
").	c #4A322E",
"!.	c #603A35",
"~.	c #402F2B",
"{.	c #2D2A27",
"].	c #252825",
"^.	c #45302D",
"/.	c #3F2E2B",
"              . + @ # $ % & * $ = = = = = = - ; > ,             ",
"              + ' ) ! = ~ { ] = ^ = = = = = $ ] / ( .           ",
"      .     , _ : < [ - ] ^ = ^ ^ = ^ = = = = = / ( . .         ",
"            } | ^ 1 2 = ^ 3 ^ 4 5 ^ 4 ^ = = = ^ / 6 7 .         ",
"        . . . ^ 4 ^ 8 = ^ 4 9 3 5 9 4 ^ = = ^ 3 ^ , < . .       ",
"  . . . . ^ . ^ 3 3 ^ = ^ 4 0 3 5 9 3 ^ = ^ 3 a ^ b c d ^ ^     ",
". . . e ^ 4 ^ f ^ 3 a ^ 9 3 0 3 9 9 3 ^ 8 ^ 3 a ^ ] c ^ 4 ^ 7   ",
"+ , g h i ^ 3 ^ ^ 9 0 ^ 9 3 0 0 9 9 0 9 ^ 0 a ^ j | ^ 4 a ^ . . ",
"k l % ^ 2 # ^ 3 0 ^ 0 a 0 0 0 a 9 0 9 0 ^ 9 a ^ 8 ^ 9 a a 9 ^ , ",
"m c ^ 4 ^ n o ^ a 0 0 p a 0 0 0 a 0 0 ^ 9 a ^ 9 ^ 9 a 9 p ^ e q ",
"= $ ^ 3 a ^ ^ ^ 0 a 0 0 a 0 0 0 9 0 0 0 a 9 9 p 9 a 9 p ^ 4 ^ r ",
"= = ^ ^ a a 0 5 0 a 0 0 a p 0 5 9 p 0 9 a 9 p 0 a 9 p ^ 3 ^ m - ",
"= = = ^ 9 a 0 p 5 0 a 0 p a 0 5 9 0 0 a 0 p 0 a 9 p ^ a 9 ^ ^ = ",
"= ^ ^ = ^ 0 a p p 5 a 0 p a p 5 9 0 9 p p 0 9 0 p ^ a 9 5 9 9 ^ ",
"^ 3 9 ^ p 0 9 a p 5 5 9 p a p 5 9 0 9 p 5 9 9 p ^ a 9 9 5 9 ^ = ",
"= ^ 3 9 ^ p 0 0 a p 5 9 p a 5 5 9 9 p 5 9 9 p 0 p a 9 5 9 3 4 ^ ",
"= ^ 0 9 a 9 5 0 0 9 5 9 p 5 9 5 p 9 p 5 0 9 0 a a 0 5 0 a ^ ^ = ",
"= = ^ 0 a p 5 5 p 9 p 5 9 5 9 5 p 0 5 p 0 p 0 p 0 a 0 a ^ = = = ",
"= = = ^ 0 a p 5 p p 0 5 9 5 9 5 0 5 5 0 0 9 5 9 a p 9 ^ = = = = ",
"= = = = ^ p 9 p 5 p 0 5 0 5 9 5 0 5 5 5 0 5 5 9 p 0 ^ = = = = = ",
"8 $ = = - ^ 9 p 5 5 0 5 0 5 9 5 0 5 5 5 0 9 9 p 5 ^ = = = = = = ",
"n s 8 8 m ^ ^ 0 5 5 0 5 0 5 5 5 ^ 5 5 0 p 0 5 5 0 ^ = = $ $ $ $ ",
"/ t = - o l ^ 0 5 5 5 0 5 0 5 5 ^ 5 5 p 5 p 5 0 ^ u = - m m m m ",
"< v 7 @ ] w ^ ^ 0 5 5 p 5 p p 5 ^ 5 p p 5 p 5 p ^ x j y , < < z ",
". 7 ( . A B C D p ^ u p ^ u u u u p u u u p u p E F G ) ) H s I ",
". . . ( J E K L M E u u u u u u u u u u u u u D N O A P h f Q l ",
"  . . 7 R S T U V D u u u u u u u u u u u x w W X Y ~ Z 7 ` ` , ",
"      . U  ...+.S E u u u u u u u u u u u E @.#.$.%.&.+ . . .   ",
". . .   . *.=.M -.u u u u u u u u u u u u ;.>.,.'.).d . .       ",
". . .     . } !.C x u = u u = u u = u u u = = B ~., . .   . .   ",
"          . 7 l / & 8 = = = = = = = = = = = $ $ l {..     . .   ",
"            . , ].^.8 = = = = = = = = = = = $ ] /.(             "};
