/* XPM */
static char * MonedaR_xpm[] = {
"32 32 8 1",
" 	c None",
".	c #322B28",
"+	c #71413B",
"@	c #180E0E",
"#	c #D76B6B",
"$	c #D72B2B",
"%	c #FFFFFF",
"&	c #B30000",
"    .. ...++..+++++++... ..     ",
"        ..++.+++++++++..        ",
"    .  ....+++++++++++...     . ",
"       .+.++++++++++++...       ",
" .   .....++++++++++++....   .. ",
"   ......+++++++++++++.+...  .. ",
"........++++++++++++++++.+..    ",
".....++++++++++++++.+++.........",
"..+.++++++++++@@@@++++++++......",
"++++++.+++++@@####@@.+++..+.++++",
"+++++++++++@##$$$$%%@++++.++++++",
"++++++++++@#$$$$$%%$%@++++++++++",
"+++++++++@#$$$$#%%$%$&@+++++++++",
"+++++++++@#$$$#%%&%$$&@+++++++++",
"+++++++++@#$$#%%$%$$$&@+++++++++",
"+++++++++@#$$%%$%&$$$&@+++++++++",
"+++++++++@#$%%#%$&$$$&@+++++++++",
"+++++++++@#%%$%$$&$$$&@+++++++++",
"++++++..+@%%$%#$$&$$$&@+++++++++",
".+.+++..+@%$%$$&&$$$$&@+++++++++",
".....+++++@%$$$$$$$$&@+++.......",
"......+++++@##$$$$&&@++...++....",
"  ....+..+++@@&&&&@@++++........",
"    ...+.+++++@@@@+++..+.... .. ",
"  .. ...+++++++++++++.+...      ",
"  ..  ..++++++++++++++... .. .  ",
"      ....++++++++++++..  ..    ",
" . .   ...++++++++++++..        ",
"        ..+++++++++++...  . .   ",
"        ...++++++++++...        ",
"        ...++++++++++...        ",
"  . .. ....++++++++++... .      "};
