/* XPM */
static char *four1741086337[] = {
/* columns rows colors chars-per-pixel */
"64 64 16 1 ",
"  c #E6EEEC",
". c #E2EAE7",
"X c #E4ECEA",
"o c #E9F0EE",
"O c #EBF2F1",
"+ c #DEE6E3",
"@ c #EDF5F3",
"# c #D8E0DC",
"$ c #B4BBAF",
"% c #AAB2A4",
"& c #F2F8F8",
"* c #BDC5BA",
"= c #A1A997",
"- c #CDD5CD",
"; c #919A85",
": c #858970",
/* pixels */
"* .X.....++X.++++++++.++++#++#+%$o.X  ... oX  ..XX ...   oOo X@-",
"$o   .XX.+...+++..++++++####+#+%$oX  X...Xo    o  oX.XX   XXXXo-",
"*OOooX.+ XX.....++..+#########.%$OOO +..XOOo   XXoOO X.XXOXX   *",
"*@O oX..X.XX..+++++++++++#-###.=$&@Oo.  O@oXX.X.XX  X  X.XXXo o-",
"$O   oX.+..+++..+.####+++###+++=$&@@O  oX o X..Xo .X   ..X.XXX *",
"*@@OOO X...+#+.XX X+++.X..++++#=$OO@@ XooXX oX. ooX ooo....X+ o-",
"*X....####+##+####++#++++.+++##=%ooO@OO o    XX. ooXo XX....+.O-",
";%=============;=;;;=====;;;;;;:$oo.oOO  XXoo X.Xoo   .....++XO-",
"=o+#+#+#++++#+++###--#--#---###%$@@oO@@@  o   XX OoOO XXX.... o-",
"%O oo    XXoX.X...+.+ .XX..XX o$$&@XooooooX. ooXoOOOoo X  X.XX -",
"%oOo  XXXXX X.XXooX+++.X .XX.oo%$& .  XX  XX OOoOOOOoXX.X   o X-",
"%@Oo X...X X .+ oXXX+++.X.... X$$@ oO X  XXooO@OOOOOo  XX Oo OX-",
"%O .XXX..X .XX+...+.+..+++##+.+$$@o  .XoX o@@O@O@O Xoo. .XOo oO#",
"=OX+.XX.XX..X.+.X..X.X+++##+#..%%&o X. oXo O@OO@Ooo XX X oo XXO#",
"=O.Xo  ooo.X.+.Xo. X..+.+##++++$%&@o X oO  oOO@OOOOo oo  X o  @+",
"%@o@O oooo ..++..+.X.+. +##++.+$%&o. . @@oO&@OO@@@@O o@OooOOo @+",
"=@OO  o ..X. .X.++++..+.+#+++.+$$&O   O@OOO@@@@@@@@@OO@OoOOOO O+",
"=@OO    o ..X o....+.X+++####+X$$&OX.X  oOooOoO&@@@@@O@@o oOoO@+",
"=  @Oo   . XX  X+..++.+#####+. $$&oXXX OO@ooooO@@@@O@o@&@XoOoO@X",
"=OooOOo X.  .X ..X..++++++.++.o$%&oOoO@O@@@OoO&@OO@@@OO&@oO@Oo@ ",
"=  oO@Oo oo X....XX.+#+++..+..O$%&@OOO@oooO   oO@@@&&@OO@@O@@@& ",
"=..  oo.X OX.XX  X..+......++.o$%&@@o..XXXooX o@@&@@&&&@oo@@OO&X",
"%oX   oXX o Xo X  XX....++++..X$=&O@OoX XoOO@oO&&&@O@&@@@O&@O@@X",
"%OX.  .X...XX  ...+...+++.+..+ $;*****$**$$*$$$*$$$$*$$$$$$$$%==",
"=OXX X....+XXXX++.+..+++++++++ $;***$$$*$*$$$$$$%%%%%%%=%=======",
"=oo XX X.++++..X.....++++++++++%=&O   O@oO@o .oo.X.++ .XX.+.XoO#",
"=O  XXX...++++.+..XX..++++...++%=@oXX. ooX...+....+++.XXX..X.  -",
"%@O   XX.+...+++.X.+  ++++X.+#+%%OooX.Xoo ...+++..X....X .... o-",
"=OoX.X++...X.+.+XX....++.+.X+#.%%O   X OoOo.+++++.XX X..X.+.XX.-",
"%o X+.++..X  X++XoX++++#++++#+X%=  ooX OoOo ..++.X.X X.. X+X..+-",
"%O. ...+++XO X++. X.+.+++.+++#+%$OXOOOOOOOo ..++.X o      .X...-",
"%O  XX..+#.X X  OO..+.++.++###+=$@ o@@OOOOoX.+++XXXX o oo ..+.+-",
"=@oo X...X.  . oo .+.X.++##++#+=%@OoOO@OoX .X....XX.Xo   X.X.X.-",
"%@o  o... .+X.X  X.....+##+++#+=%O Xo@Ooo X.X o.. ..XXoo . X.XX#",
"%@   o .+.++ oo XXXX....++++##X%% XX ooOOo X   .. ..  Xoo o..XX#",
"%@OOoo X++. oOO..XX.XX...+.++++%$OX.. oooooX.X .. .XooXXoo ..+.-",
"%@o oOX+..X..oo....+++++..++#+#=$OX  XX X o XX..X X.XooXo .X...*",
"%@oOoOX+..X.oOX X X+..X XXX..++=$oX    o.ooX...X  XX Oooo ..X..*",
"=o+#++########-------------***$:$O o . XXOoXX      XoOOOOo XXX -",
";$%%$%%$$$%%%%%$%%%$%$%%%%====%:$@X .+X+.Oo X  . Oo OOOooo X  o-",
"*oXX XXoOOOOOOOo ooXXOO@@o OOO@$$O .....X  XXXXX O@@OOoOoXXXX @*",
"*@OO   o XoooooXX.... . .X oOoo%$@XX. oXX.X X.XOOOOOOo  OoX   @*",
"*@@o X XXXooooOXX  .+.+...o . o%%& ooo@  .. XXXOOooo X X X XXoo*",
"*@O X...XXX  oOo  X.+..+..  ..X%$@oooooX...oooooOOOO X.XX      *",
"*oXXX...X .X XX o  XXX oOXXOOo.%$&O   oX.X oooooo  ooo XX X    $",
"* +.XX.XX..Xoo O@o X.Xo@O . OO %*&O o oX.X oO    o  ooo .X    o*",
"$X.   ooo.X.oOoOoO@X+ o@OOOO@OO$*&oooooX...Xooooo .... o.X    @*",
"* OO oooo XXXX..X  .XX.XX O@OoO$$@ X  oXX..Xooo O X.X.. o  oXXO$",
"*oOo o X.Xo   X    ...X..X  XX@**O..o  XX..  X  o oo .. o X XXo$",
"*Ooo X... OoX   XXoo XXXXo.XXXo$*O.X X  XXX.X.  oo   XXooooo .o%",
"*@OOo..Xo@O XXXXXXoo XXXXo Xo  $*@   o.X.... X   .X oXXOoo ooX $",
"*&@@OX ooOo .... XX  ooX.XXX Xo$*O  oX+XX  ooOo XXXoOOoOooo XX.$",
"*&@@O Xo X.X ...XX.X o ++..X.XX$*O oXX. ooOOoOoX. oO@@O@OoOoX O$",
"*OOoo X  .+.XX.XX.XX...+++. .Xo$*&Ooo ooo OOOo  OO&@@@@@O oO oo$",
"*&oXooXX..Xo ooo .X...++++X XX $*&@@&@O&&O@O@O   o@ooOoXXX.+++#%",
"*@   ooXoo@o ooooX.+.X+...XXXX.$;%%=%%%%%%$%%$$$$$$$$*$$%%%==;;:",
"*@oo  ooOoO o  ..X+..+#++.++++ $=--------#-#####-##++++++####++*",
"*@OoX . O OoXX.......+++#++++..%$&O@OOOO oooo.  X.XOOooOooo oOO*",
"*@oo X+. XooXXX. X.X.++++++..++%$@ooOOooo  oOo XXXX  o o  oX. o*",
"*OX.XX..XX XXo .oXX.X .++++..++%$@OOoo  XX oooo   XX.. X Xo +X *",
"*oXX.XX X.X+....  ..XX++.###++X=$@OOOoX Xo@XXXoo  X XXooX. O ..*",
"*O XX   ..+.X.... X.+.+#+###+.O%%  o X.oX oXXXXo@o X.XooXX oo .*",
"*oo...++..+X +...oX.++++++++++o%%  XXXX.+. oO@oO@OOX+. ooXo . o-",
"*o ++.+..+. .#++.o.+++#+.+#+++X$$&X o X..XO@o  o oO.+X OOooo oO-"
};
