/* XPM */
static char *one1741086337[] = {
/* columns rows colors chars-per-pixel */
"64 64 31 1 ",
"  c #B8725A",
". c #AC6750",
"X c #B56C51",
"o c #B06B54",
"O c #B76F55",
"+ c #B36C56",
"@ c #AD654C",
"# c #BC7861",
"$ c #AF6952",
"% c #A8654E",
"& c #B4705C",
"* c #B36F56",
"= c #BB755C",
"- c #B2694D",
"; c #B67562",
": c #AA624A",
"> c #BD7B65",
", c #A25F49",
"< c #C07E68",
"1 c #C2826E",
"2 c #774D3F",
"3 c #6D4637",
"4 c #8C5A48",
"5 c #7D584A",
"6 c #835240",
"7 c #A56B58",
"8 c #623E2F",
"9 c #846254",
"0 c #97624F",
"q c #C68976",
"w c #CB9280",
/* pixels */
"2X..%+$,%..:%%:,%%,$%.$$&$$@%%,32 .o+&.@.&;+O+%.XXX@@-OO& >#*o10",
"2&*+*.@%%%$o$o,%ooo+.$++o$$%%o732 $**o.%.o;&+&&;*& X-X-O**o*-X#0",
"6=;  $:%&$+&*o%$ #;+@o+.,%@%%o.32#=#&,.@+;# XXXoX= = X-XX;X**OO4",
"6# *&.%@..oo%.%:....$..%,..%&7%32<>> .+*=>;oo@--Xo+OX&*X-*XX& ;4",
"2#O*+&$:,:%,,,.%:&&$.@%%%.:.+7,3611<>OXOX  O$@@- *--OOO-@X-XX$*4",
"6>>;;;O.,::,4,@$o&&.,,%.$$%.,,432=#1<Oo =*$+ $@*==-X  =::@$-:* 0",
"5;;&;;:,,,%,:,,,,,%%,7.777%,00432+ <1>#* ***&oX-O= *= ---@%@,->0",
"822333838333338888883332388883382&=o;##+*+$&&O$@X#=+*O@--.@,:o=0",
"51$,:%%,%o$%%%7%4,,66464464440722><=#><<&*; OO** #=## X-X-@.$*=0",
"5<&= +XX*oo o%$%.$,%.*$oo.%$$o&221>-& ==  o-O= -=###=  XOO---XO7",
"5;# *OXXXo.+o%o.+&o%o*o$+.,%%&7251O-OO-XOOoo*#>#>#=#=XX-X*  O O7",
"5<#;*o@--XOXO@,*+.%%%$.@$.,%7o725<O=#OX X-X##>1<<>###OOX-*> X#X,",
"5>&.o+-:.$+@-$,@@@%:@+@@%%%%%o%391 OO-X XO=<1#<><#OX==XO-X#=X=>7",
"5#$,%$$%$$:@..,:.%.%:$::%$.....29q= O-X X &#<><<>==OXOOXOO  XX>%",
"5#%o&+*&& .@,,:.&,*o%.%oo+**%%.29q<=OXO## O#>><>><<=O =OO-O=XX<7",
"91 >;+ &&&o@:,,@:,..%,.&o++o%o,35q#-X@O<<#>q1<><<11> =<#= >#=O1;",
"5q>#&O X:%$@o.$:,,,,:%%+$+o,.*%25w#OOO>1>##<<1111111<>1>=##>#*>7",
"5<#>*O** *..**&@:@:,:@@.+&+$+..22q>-@XX  > =#=<11<111><1=O=#=#17",
"6O <># * $*oX+X-:@%,%$O --O *%726q=XXX #>>====>1<<<<<#1q<-=>#>1&",
"5>= =# Xo.*O@o+..o.+X-O Oo=&.$o62q=#=>1>11<###1<>#111##q1=#>#=1;",
"5;+ ><; &  OX@...o.-$%$==o**@.o69w1##>1; => O =><11qq1<><<#1<<q>",
"5$@X+ &..*;$---o+$.X+o ===#*.-&25q<<=$%$X-==-O 11q11qqq1#=<1>#q;",
"9#XOO& o$  ++O*o*o+  - ###=O+-$25q=# &$$.+ ;> =qqq1=<1;><#1>#><7",
"9>-.O+...o O$X+%.$$#>###===.$-$22;559464595546445446446264264222",
"5>+o+$%:@.*-@$$,%*&#>>#= =#Oo-o327466664456223228338888838833323",
"2#O+.$+.:$*-@@.%%$ = &=*oX= oX$39w#+oX # ## +%*+..%:,&o.o..%*;;0",
"5#+*$$%:,:@:@%$@:$== &.@$X-X*o%35<&oX-O  o..%,.%..:%.o&+*o+%%o74",
"9<#&++$%,::@$oo:@+.$&&=*.o-+o*o35=& X@-==+%%%.$@$X$.$@.o&7o$.%70",
"5> o%$%,,::$-$+@$o%:$oO& o$+XOo35#OOO*O#=##.%$-%:.o$X@@@.%$+&&%4",
"9#*$,%,,%%$&o$.:o*-,:.+o* .@XX*35*O==XO##>=OoOO%.$$-O.@%o$*&+*,2",
"9>.$%::,,%o;+@%%.+X.:,%.$Oo.o $85=X=>###=##O@o*..o =O+++ooo.oo%4",
"9<+oo.::,4.$o$o+;;o$.oo.@O=*$ .85<  <<>>###-@$$.$o$o+&o+&+.$.*%4",
"91&&+$@:,..++.+&&+$.o*-$- =O++$35>#=>#<> XO--@%@@$..$ ++o.%O$$.6",
"9q *$&%@@o:,-:.$$...oX o.= =&*O35#*X >>==OX@++&@:+@%$o+&+%+ -o70",
"9q+*o&*@,:,,&&&+$$$.o =O*; &*O+39OX-X= ##=Oo*++@@X@@X*oOO  ::$70",
"5<#;&&+.,,:*&;;..:@++*>##; * -@89#X-.*=& = X-o+@.*.X =XX=  -@@@4",
"91 *&;$,::$%.;&.:@:%#>>;#>&o* :39=XX*$+*$* O--.%$*X@X==o *@-$.:4",
"91 ;  .,:%.%&=@o.-.,$ =;##&OOO*69 XO***&%  $-@$o+X$oO#=  O----:6",
"9q;&&;7777;&;&%046000004446646689#XO+%+o$# $XO**O  X #### OXXX-0",
"823332225522555522556552523332289>-X@,$%@= X-O+$ #=O#=##= OXOO=0",
"2;7o&o7;>#;;>>;&*&;$.#;<<;&#;##66=X@@%%:.O*X@-.+*#1<>#=#=-X--*<4",
"51;;++&;**= &&&.$@@%%+@+.o& ;  25#$$.+&.-.$X@@@#####>=* #=XXXO>4",
"2<> O-XXo.+&&;;oo&+%%@,:@%&o@+ 391+&&;>&-@%*$o$#>== *oXXXO o$  6",
"5>#+o@--XXoO*&# **-%,::,%%$&..o35< &&&&..@@ &&&=>;;;*-@--**++O&6",
"6 *+X@@-oO.-X.$O;*++..$&;$$>; @351#+*$&$@X+=  & =**&  &o$+XO&**2",
"6+,%$$%..@:.&;O;1;&$:o+>;&$&;#$39q;+&+&.@$+ #++o+&+*&& *.XOO*O 6",
"2%.++++&&%@:&> ;;#>$:*&>>#;#<#=49q &&&&.@%.$&&&&&$:%.-+ $-OO*O<4",
"6o;;+&&;&o$.o+@$XX*.$X.+++#>#;#69<*+++&$$%@$O&&*;+o%$-$O +*=$X>0",
"6 = * +.%o;*O+o&OXO-:.-@%*  $$>49 @%&++$%@.O+o*+&+&&X.@ =*o*-X=4",
"4#= O$@:%*# o+& o+  OX-X*;$*X- 64 @$+o**$$-@-:+o& *OOo*= ===O-=4",
"4<#> :.o >=*O-XX$.& **--X#Oo& *64#XXO&@$%.@@+.o$*%X =XX==#   X 4",
"4q1>;oO& #;+$:--OXXXO  X---XOo&64=X+O$,.+o+ &&&+ooo=>###= =+$X-6",
"41<1;XXOOo.oX@@.o+@X+X+.;*@--oo24=O&o@.X O## ; @- ##<1><###=-*#6",
"6#>#=Xo**.,.$$%o.:.$$@:,*o.+:o*601# ;+ ==X#;# XO#>q1<<<<#O=<O==2",
"4q=-= +@%%+&+&&;&%@%$o$%$..+$-.27w1<1<>qq>>#<#O*  <#=#;**o$%*o,3",
"41*+O=;o&&>&O &&&@:,% *.o&&$o+%335222222255555955545222328383888",
"5>;;$O &=O#*& -:%%,%+&*o-X.%%$738444000077777777777&7777;%,%,7&6",
"4<;;o+:.$o;O+.%@%:@+#;o$.@-@%%0321;>##= * =O -XOX.o##& #    =>#4",
"4> &+.%%@$  o.+$o@$oX*o$%:-$o%,33>&#;;  ;  ;;;&--ooo*&* *O o@  6",
"4=$,.$.o+o+$.-X$o@$.*,:%$:%.%.:82>># &+Xo- &&&;*+&o.%.O**X&+:$O6",
"5&.$@@.;+o$.*$o X-...%%..o%o%o-22#>#;&o++&>$+++ &+o+o$;;o-+#&.-6",
"6#&oo*& oo.o$..+*&*$..o$%o.o$* 63oO;*o%&o*&.@oo <&*o@$==oo*; O@6",
"6= %.+7&o$.o--$$+&*o$.+@..%@$*&28$*o$..7,%* #< ;<;#$,@X= o&O-*O0",
"2OX,,..&*.@-@..@.&,:.o.%%%:@%%.321o* &o..o;1 &+ O;;$:XO>=&= X;#0"
};
