/* XPM */
static char *three1741086337[] = {
/* columns rows colors chars-per-pixel */
"64 64 24 1 ",
"  c #70AEA7",
". c #75AEA6",
"X c #6DABA4",
"o c #76B1AA",
"O c #72ABA3",
"+ c #6EA9A1",
"@ c #78B4AD",
"# c #6BA7A0",
"$ c #7AB2A9",
"% c #7EB7B0",
"& c #6BA49C",
"* c #84BBB3",
"= c #71B1AA",
"- c #679F97",
"; c #7FB5AD",
": c #5D776E",
"> c #5C7D75",
", c #64837B",
"< c #527067",
"1 c #8EC1B9",
"2 c #4C655D",
"3 c #628C84",
"4 c #68968E",
"5 c #465A51",
/* pixels */
":=#+&.O-&+X&&&&-&&-+&+OO.OX##&-2<@#O.o#+#.$.o=&# ==#+X==o$%;.O*4",
":$...++&&&OOOO-#OOOoXOo.OOX#&O+2:@O..O+&#O;o.$o$.o@ X  =..X X %3",
">%;;$+&&$Oo$oO&O@;;.#..+&###&O#2:%%%o-##O;%@ =   @;%o X  ;  o==3",
">*;o$O##+#..#+#&#+++O++#-O+#$+-2>1**;#.o%*; X+ X  .o oo X   $$$3",
":*o..$X&-&&-4-++&$$O+###&+#+.&-2>11**@=$ oooX#XX@=X =ooX+ X  X ,",
">**%%%@+&&&-4-#OO$$#&-#+OO#+--42<%*1*@ @%O+o@X# %@X=@@@###+X&o@4",
",$$.$$&--4&----4--&&-##+&O&---32<o@***%o@....O X@@@ %o  X#&+&X*4",
"5<<22222222222255555222225555555:o@X@%*o..O@$oX# %@ o=XXX+#-&O;3",
":*+-&&&-&+#&--&-444333333333444<<**%%***..;@o@  @%%%%@  =XX+#o@4",
":*o@@.  .OO@O&O&#+-&#.+.O&&OOO.::1*X$;;%;@XX=.  ;%%%%%@=== X  =4",
":;;$o=   O+o &OO.$O&+..X.#-#&.O<:1oX@@ =@@X +..%%%%%%= X .@@@@=4",
":*%;.X#XX== =#-oo+&#&+X+O+-&&O+<,*o%%o @=  oX #.=@%%%@== =*@=%=4",
":*o#X X#+X #X+-##+-&# #+###&-.&<,%@== =@=@@$ooo XXX&O@ @X=*%=@*-",
":%O-&O #+O##++-&+&###O&&&+O#&+#<,%@@=X=@ o.. .$ #XX ====@@@@  *-",
":;&O$..$$$#+&&&+o-.O#+&O....&##<>$o%@=o%* +o  o=XXX.o@@=@ @@==1-",
":1;*;o@$$$.+#--#&-#+#-#$....&O-<:oXX=X@** .;oo..#+++. X @o@@@=1O",
":1*%ooo ## #.XX#----&&&...O-+.-<>;X@@@*%$o;$o@X+++O+ XX o.&o@o*&",
":*%*o=oo$o+# o$###&-###+.$.O X#:<#+XX=@.#O@oX= .OO&#X. o o@%%*1-",
":oo*%%oooXoX .oX&X#-&X@oX o$.&#::+X===;oO$@@ @%$O#&&+XOo$ o*%*1O",
":*@$%*@= +oo+O.+#O#  Xo@@ @o++O>:@@*%oOO..@@==ooo+&&& oo$o@@.o1$",
":$.;%*%@o$;o X#&+O+ X&X@@ o.#+.>:%**%@.$o o=XXXO+-&.Oo X..@*%%1$",
":+# .$$++o;XXXX..O+= Xo%@%%.+ .::.**@X&+=X o+X#+#&+.O$o  =@%%*1.",
">% @o$$OO$@  @oO.O @oX@%%%%o  +:<@;*;$+X+o$;$Xo@X o@@%;o=o%%%**&",
",%XXo.#+#+@o =.&#+O%*%%%%%%O+ +:53>,3,,,,,>,>>>><>>:,,>::><>,:<<",
">* X=O&&##. + O-&.o%**%;o%%o =.<24,>>>>3,>>::<::22<2225225522222",
"<%@.OO.+#+.X++###O$@$o;o =%@X +<>1%   @%@%%o &o.##---.O+O+#&O$.3",
":*o.OO#&-#X###O#&O;;$$+#X   o &<:*$O X=@@O&##-#&+#&&#O$..O.#&OO4",
">*%. .O#-&#XXO.#+. O$$;o+XX.OoO<:%$@ #X@@.&&&++#X X#X#XO.&OO#&+4",
":*$ #+---##XXO.X+ ##X.$$$O+.==O<:%o@= =%%%;+&X &#XX =X###&Oo$$&3",
">%.O-&--&&OoXX+&Oo &&+. oo##==o<: =@@ @*%*%o.o=&#OXXo++#OO.$oo->",
",*+O&&#---O;.X&&+. +&-&+Xo + @+2>@ %*%%%%%%o#  #+ o%o....OO#X -3",
",*.OO+##-4#O.OOo;;.O+. #+o@.+$#2:*o@****%%% #XX#+ O .$.oo.+X#.-3",
">1;$.O#&-++=o#.$$.++.o XX@@@..X2:*%@*%**@ @XX+###O+# ;..O##oXO#,",
",1;o.$### #- #+O.++#X oX#%o%ooo2>%= @**@%@=#..$##.+&XO.$.&.oXX&3",
",1o.O$.+-&--$$$..OX#X@;o.;$oo@o<,@ X=;$%*%oX ..X+=##= O$oo@##X+4",
">*%;$$o+--&.$;;++#+  o%;@$$.@ X2,* XXo;o$%@ XO.++.+ @@  @$oXX##4",
",1@o$;.&&#O&#;;+&##&;**;%*oXo@&2,%==oO..+o@o X#&+o #=@@XooX X#&3",
",1@%@;+-&&+&.%X + O-+@@;%%$@@==:,@=o...$&$;+XXXO.=XXo%@@@oXX X#,",
",1.OO.&&&&OO.O-43,444443333>,>>5,*=o.#.O+%@X o. o@o @%%*%@===  3",
"5<22<<<::>::::::<<:>:::<:<2<<<<5,* =#-O&#%;  o.+o%@o%%%%%@@===%4",
">$+O.O+$;;;;*%;$.$; +%;**@o%%**>>%=#+&&&X=. X X .%**%%%%%     *3",
",*;;.oo$ O@@$$$+O#+#&o#o#Oo@;;o<>*O+#.$XX#O=X#+%%%%%*@.@*% ==o*3",
">**$= = O+$$$;;OO..#-+-##&$.#.o<,1.$o;*. ##oO O%*%@;o ====o +@o>",
",*%.X#XX=  =o$*;..X&-&&-&&O.+#X<,1@@$$$O+X#$$$$%*%;;oX#X o...o.>",
",@O  X#X oX =+ o;o. X+.$$OO%;$#<>1%..O$O+ .;@@$@%ooo;$oOX. @o..<",
",.-&O &+++#+o;o;1;oO& $*$.+.;;X<,1%...$+#O ;%o...$o.$$@.# o=.o@,",
">##...oo$&+&$*@;;;*O&.$*%%;%*;%,,1@$$$$+#&#+o$$$$.&##X.oXXooo@*3",
">.;;o$;$$.O+  #+ =.#X # ..;*;;;>,*oO..$O+##O$ooo;o &XXX@@. %+ *3",
",@%$o@o+&O$.ooO.==@X#X #&OooXX%,3%X&$..O###ooO...o$$=#X@@oOoX=%>",
"3*;@oX###o%@Oooo+.;@o X= $X   o>,%XXoO..+XXX &..$$ooo  %@%%@= %>",
"31**@&#X;*%o=   OX$;.    ;= $@.>,*==oo#O&#X#.+.O.# @@  %@%o%%=@,",
"311*; @$@%; +#XX=  ==o$ X X o .>,%==@O-+. o$;;$.XX ;*%%%;@%oX X>",
"3111;= @o #O X#+O # o  +;o+ XXX<,%=$O++o@$*%$;;+X@%%*1%*%%%% o*>",
",%*%%=X=o+-#OX&O+#+OO##-. + # o>31%;;o@%%=*%%$=@%*1****1*@%*@@%<",
",1% ;@ +&&O$.$$$.#+#O.O&X##.  +<411*1**11***1%oo@;1%@%;OOOO-O+42",
",1o.o%$O$$*$o@$$$+&-&$.+.$oOOo+<5:<<:<<<:::::,,>>:,::::<<2252555",
",*;;.o;$;@;o$o &&#&&.$oOX=+&&O+<53,343444---&-&--&&O&&&&.-4-4&.>",
",*;;Oo&+OO%@oX&#&#+.*$O+X+X+&#-2:*$*;%%@.@%%@  ==# ;;oo%@@@o%%%,",
",*;$.O&#+O$$O+.+.+X =..+&#XXO&42<%$;;;$$@oo;;$.  O.OO$o$oo$O#@o>",
",% -#OO.. .O# =O #OOo-&# &&#&+&2<**%;$o=  @$$$;....+&#oO.=$.&X@>",
",$X+#+#$..O+O+O$ X++X&&++O&O&XX<:%*%;. . $*O..$@o. .OO;$XX.;o##>",
">%$O o$$O +OO&#.o$oX##.X&O#OX.@:< =;.X&$O.$O+  @*$. #X%@ Xo@$=X>",
">%@##.&$O++   +O.$.  +.#####  .:2OoO++++-#o$%*@;*;;O-X=@$O$oX=@4",
">@o--+#..+# XX#++.-#+O####&#&##<<1 .$.O++O%1;o=$o;;+& =%;@;@=;%4"
};
