/* XPM */
static char *two1741086337[] = {
/* columns rows colors chars-per-pixel */
"64 64 18 1 ",
"  c #C5B8A7",
". c #C1B3A3",
"X c #C7BCAD",
"o c #C6BAAB",
"O c #C3B6A5",
"+ c #C9BEB0",
"@ c #BEB0A0",
"# c #CBC1B3",
"$ c #BBAD9C",
"% c #CEC5B8",
"& c #B7A896",
"* c #8C8276",
"= c #958B7E",
"- c #83786A",
"; c #9D9485",
": c #ADA090",
"> c #D2CBBF",
", c #72685A",
/* pixels */
"= .O...O.$@O.$$$$@$$@@@$$$&&&:&**+O  oO.OoX o .O   ..OoooX#+o %:",
"=Xo o.O.@@.@.@$$@.@@$$$&&&:$@:$**+Oo OO.. +oooX+ooX O  ooo oO #:",
";++XXO.@  ....@@$$@@$&&&&::&&&@-*#++o@.. ++X     X++X O  +  ooX;",
";#XooO....OO.@$$&@$$$$$$&&:&&&@-=%##+. o+#+  .OO  oo oo O   XX+:",
"=#oooXO@@@.@$@@.@.&&&&$$&&&&&$$-=%%##o o XXoO.OOXoO  ooOO O  Oo;",
";##+++oO@@@$&@.O o.&$$..@.@$$$&-*+#%%o X+ OoXO.o++O XX+.@.OO@oX:",
";o Ooo$&&&$$$$$&$$@@$....O.@$$&-*oo#%#+oXoooo  OoXX +X  O...@O#:",
",*-------------,,,,,-----,,,,,,,*X+O+++oo OXXoO. ++ oo.OOO.$@ +:",
"*#.$@@@$@..@$@.@&&&::&::&:::&$$**##++#%%o +Xoo  X#+++X O O.OOo+&",
"*#oXXo  o  X .O.OO@@@ OO..@.OoX=*>#OXX++XXOOo+XOX+#++XX ooOOO o&",
"*+#Xoo    Oo . OoX @@@.Oo..O.Xo-=>oOoo  ooO o##+#++#+  O oXooXo&",
"*%++oO.OO o o.@ooO..$$@.O@@@. O*=%oX#o o O ++#%###+++   O #Xo+ :",
"*#oOO O.OO .OO@...@.@..@@&&&&.@*=%X  O X oX%%#####o XX oO #X +#$",
"*# $.O .OO..OO@@O.O..O@&$$&&&@@*=>+Xo. X Xo####%#++o oo ooXo  #&",
"*#.OXooXXXO.@@.Oo@o .@@.@&&$@$@**>%Xo o+#Xo+#######+ X+ooOX+  %@",
"*%X#+oXXXo ..$$.@$.O.@.o$:&$@@$**>+O .o##+#>%####%%#XX%#XX#++o%O",
"*%##ooX ..O. .O.$$@@@.@@$&$$$@$*=>+oo #%#++#%%%%%%%%##%#+#+#+o#.",
"*%##ooooXoO. oX.@..$@O$$$&&&&$O=*>#O.  oX#X+#X#%%%%%%#%%+o+#++%.",
"-oo##+XoXOo    O@..$@@$&&&&&@@o=*>+   X+##++++#%%%###+%>#O+#+#% ",
"*#XX+#X  OooO oO. O.$$$$$@@$@.X=*>X#+#%#%%%#+#%%#+%%%+#%%+###+%+",
"*X X#%+XoXXo .OOO OO$&$@@.@$@.o=*>%#+#%+X+#Xoo+#%%%%>%##%##%##>+",
"*O.  XoOOo+OOOO oO..@@...@@$@.X**>%%XO.O O+XO X%%>%%%>>%++%%##>X",
"*# oooX OoX  Xo ooOOO...@@@@@@O*->+#+XO Oo++%++>>>%+%%#%%#%###% ",
"*#OOo .O.O. O o...$@..$@.@$@.@ *,:==;==========;=======*==*==*--",
"*#    ....$O OO@@.$..@$$$@$&$$O*,:;====;;====*=*--*-------------",
"-+XoOO ..@$@...O...O.@@@$@@$@@@-*>#o o+#+##Xo.XoOO.@$ .OO@@. X+&",
"*# o O..@@@@$@@$@.O...@$$@..@&&-*%X  O XXOOO.$....@@@O.OO.@..oo:",
"*%+o oO.@@...@$$.O.@oO@@@$O.$&$**#XX .O++o...@$@.. ....Oo..O@oo:",
"-#X .O@$@..O.@@$OO....$$@&@O&&.**#ooo o#+++.@@@$$OO o...O.$@OO.:",
"*+oO$.@@..OXoO$$OXO@@@$$$$$$$$.--ooX+ o#+#+o..@$.OOOoO.. O$.@.@:",
"=+.O..@@@@O+oO@@.oO@@.@$@.$$&&$-=+ +#+##+++o..$@O o+ooo   . .@.:",
"=%o  O..$&.   oo+X@@@.@$@$$&&&&-=%XX%%##+++O.@$@O O  X ooo.O@.@:",
"*%XX O.@@OO  .ooX .@.O.@$&&$&:$-*##+#+##X oOO.@..OOO X o ..OOOO:",
"*>Xo o... .$O.O O......@&&&@$:@-*#o X##++o . oX.@ ..O oXo.  OOO:",
"=>oo Xo.@@@$ooo .OOO@@@@$@@@&&.-=X O +X+#+o ooo.. .. oOoooX..O &",
"*%++XX O@$@oX++...OOOO..O@@@&&@-;# OOoXoX+X O o.OoO X+  XXX....:",
"*%XoX+O@@.O.O+X.@..@@@@@.@$$$$&-=# ooO oOoXoOOO.Oo . +XOoo.OOO@;",
"=%X+X+O@..O.o+O O O$..OOOOO@.$$-=+ o ooX.XXOO.O  oOOo#+XXoOOOO.;",
"*%O@..$$$$@$@$&::;:&&&::::;;;==,=# o .o O+XO oo oXX X#+#+X   O :",
",**-*****=*********=*****------,;#O .$O..++ OooOo#X +++++Xo  o+:",
"=X  oOO+##++##+XoX+ .#+#%+X##+#==# ....@Ooo O O o+%###+#XO OO %;",
";%++ooo+o XXXXoO .... . O XX+XX*=#OO.oXOOO  O..+#++##XoX++  oo#;",
"=%#Xo   OOoXXX+O o .@.@...o . X*=%oXoX#o ..oO O+#+++o    oX OXX;",
";##  .OO   ooX#XooO.$.@@..OoO. *=%XoooXOOO.XoXX+#+++oO.OOoo  oX;",
";X   ..O oOO OOoXoo O. X+OO##XO*=%+oo oO.  +XXoX+ooX+Xo O  Xooo=",
";o$.O .OO..OoXo+%+oO@ o#+XOX++O*;>+ooooO.O X#oo oX ooXX O o ooX;",
"=OO  oooX..@o#X++##O@ o###++##+=;>XXXXoO..OOoXXoX ..OO XOOoooo%;",
"= ++oXXXX OO  .O  o.O O   +##+#=;%o   o O..OoXXo+o .OOOoX o+O #;",
";X+XoXo.. Xooo oooo..OO.. XXOO#;;+..o oO..Ooo o ooXX ..o+o oO +=",
";#+XoO.@.o+X ooX  +Xo O o+Oo O+=;+.Oo ooOOO.O@o XXooo  +X++XoO+*",
";%+#X@OOX#+o    OOX+o  O +o XXo=;#  oX.O.... O   . XX  +X+XXX X=",
";>%#+ oXX#+ O.OOo    XX OOO o X=;#  oO$O  oXXXX  O X##+#+X+ O O=",
";%%%+  oo O  ..O  . oXX@$..OOO *=#oX .O oo#+X+X.OX++%%###++XOo#=",
";+#++ O o.$. O. O.OO...$$@. .OX=;%+X+oX++ +++X o+#%%%#%%#oX#oX+*",
";>+ +X ... X XoXo..@..$$@@O  O *:>%%%##>>###%+ooXX%#+#+ o O@O.$*",
";%ooo+X XX#XoXXoo.@@..$@..O. OO*,**-*********====*=====**---,,,,",
";%++ oX++X#oXoO@..@..@&$$@$&$$O*-::::::&&$&&$$$&&$$.@@@@O$&$&@O=",
";%++  @o+ XX ......O.$$$$$@$$@@*=%+###+XoXXXXO o O ##oX+XXXo+##;",
";#Xo .@.  XXO. .o....@@$$$@..$$-*#X+++XX+XX++Xo     oXoXooX .oX;",
";+O@.O..OO  Oo .X .@O .$@$@@@$@-*%#+XXo  OXXXX+o o O..ooo X @Oo;",
";XOO..Oo..O@@.@.o ...O@$@&&&&$O-*###+o   X#O  oXo  oOO++OO +oOO;",
";#oO    O.@.O.@..oO.$@$&$&&&&O+** o+oO.X oXO.  X#Xo .O+XO o+Xo.=",
";+X..O@@..@  $@@.o .$$$$$$$$&@X*- oOOOOO$.oX+#++#++O@O +X XoOoX:",
"=X @@.$..@.o.&$$.o@@$$$@@$&&&$.**%  Xo .O +%XX Xo+#O. o#+X+X +#:"
};
