/* XPM */
static char * FG_Cellar_xpm[] = {
"32 32 3 1",
" 	c None",
".	c #322B28",
"+	c #71413B",
"    .. ...++..+++++++... ..     ",
"        ..++.+++++++++..        ",
"    .  ....+++++++++++...     . ",
"       .+.++++++++++++...       ",
" .   .....++++++++++++....   .. ",
"   ......+++++++++++++.+...  .. ",
"........++++++++++++++++.+..    ",
".....++++++++++++++.+++.........",
"..+.++++++++++++++++++++++......",
"++++++.++++++++++++..+++..+.++++",
"+++++++++++++++++++..++++.++++++",
"++++++++++++++++++++++++++++++++",
"++++++++++++++++++++++++++++++++",
"++++++++++++++++++++++++++++++++",
"++++++++++++++++++++++++++++++++",
"++++++++++++++++++++++++++++++++",
"++++++++++++++++++++++++++++++++",
"++++++++++++++++++++++++++++++++",
"++++++..+.++++++++++++++++++++++",
".+.+++..++++++++++++++++++++++++",
".....++++++++++++++++++++.......",
"......+++++++++++++++++...++....",
"  ....+..+++++++++++++++........",
"    ...+.++++++++++++..+.... .. ",
"  .. ...+++++++++++++.+...      ",
"  ..  ..++++++++++++++... .. .  ",
"      ....++++++++++++..  ..    ",
" . .   ...++++++++++++..        ",
"        ..+++++++++++...  . .   ",
"        ...++++++++++...        ",
"        ...++++++++++...        ",
"  . .. ....++++++++++... .      "};
