/* XPM */
static char * player_xpm[] = {
"32 32 8 1",
" 	c None",
".	c #322B28",
"+	c #71413B",
"@	c #04193F",
"#	c #F489F6",
"$	c #780BF7",
"%	c #D840FB",
"&	c #FCFEFE",
"    .. ...++..+++++++... ..     ",
"        ..++.+++++++++..        ",
"    .  ....+++++++++++...     . ",
"       .+.++++++++++++...       ",
" .   .....@@+++++@@+++....   .. ",
"   ......@##@+++@$$@++.+...  .. ",
"........@####@+@$$$@++++.+..    ",
".....+++@#####@@$$$$@++.........",
"..+.+++++@###%%%%$$$@+++++......",
"++++++.++@%#####%%%$$@++..+.++++",
"++++++++@%#######%%%$@+++.++++++",
"++++++++@#####&&&&&&$$@+++++++++",
"+++++++@%####&&&&&&&&$@+++++++++",
"+++++++@####&&@@@&&&@@$@++++++++",
"+++++++@####&@@&&@&@@&@@++++++++",
"+++++++@####&@@&&@&@@&@@++++++++",
"+++++++@####&@@@@@&@@@@@++++++++",
"+++++++@%####&@@@&&&@@$@++++++++",
"++++++..@####&&&&&&&&&@+++++++++",
".+.+++..@%####%&&&&&&$@+++++++++",
".....++++@#####%%%$$$@+++.......",
"......+++@######&&&$@++...++....",
"  ....+.@####$#&&&&$$@++........",
"    ...+@####$#&&&&&$@.+.... .. ",
"  .. ..@####$%&&&&&&$$@...      ",
"  ..  .@####$%&&&&&&$$@.. .. .  ",
"      .@###$%#&&&&&&$$@.  ..    ",
" . .   .@$$%%##&&&&$@@..        ",
"        .@%%###%%%$$@...  . .   ",
"        .@####@@$$$$@...        ",
"        .@####@@$$$@+...        ",
"  . .. ..@###@+@$$$@+... .      "};
